<?xml version="1.0" encoding="UTF-8"?>
<svg id="Layer_2" data-name="Layer 2" xmlns="http://www.w3.org/2000/svg" viewBox="0 0 2012.07 629.67">
  <defs>
    <style>
      .cls-1 {
        fill: #fff;
      }
    </style>
  </defs>
  <g id="Layer_1-2" data-name="Layer 1">
    <g>
      <path class="cls-1" d="M65.36,203.18h122.97v-33.8h-123.12c-.06-13.4-.11-22.2-.11-22.2V34.17c23.89.09,51.27.19,72.06.19,56.4,0,73.61,8.57,73.61,8.57l.97-.5V.29H49.86v.03H.71L0,1.38s5,17.61,5,73.35c0,29.3.18,71.71.31,98.92-.13,27.21-.31,69.61-.31,98.92C5,328.32,0,345.93,0,345.93l.65,1.06h69.15l.74-1.06s-5-17.61-5-73.35c0-20.01-.08-46.16-.18-69.39Z"/>
      <path class="cls-1" d="M1122.58,42.42V.51h-289.78v41.9l.97.5s17.19-8.57,73.61-8.57c8.62,0,18.37,0,28.54-.05h11.99v112.92l-.03-.23s-.45,79.09-.45,125.39c0,55.74-5.01,73.35-5.01,73.35l.71,1.26h69.12l.7-1.26s-5.01-17.61-5.01-73.35c0-46.3-.45-125.39-.45-125.39v.15l-.02-112.84h11.98c10.17.03,19.92.05,28.54.05,56.4,0,73.61,8.57,73.61,8.57l.97-.5Z"/>
      <path class="cls-1" d="M1375.17,304.96l-.97-.5s-17.2,8.56-73.61,8.56c-20.23,0-46.72.09-70.15.18h-.32c-.63-10.44-1.1-23.78-1.1-40.6,0-26.36-.14-63.33-.27-90.32h123.05v-33.8h-122.97c.1-24.27.19-52.49.19-73.77,0-16.8.45-30.13,1.1-40.57,23.52.09,50.14.17,70.46.17,56.39,0,73.61,8.57,73.61,8.57l.97-.5V.31h-146.6l.03.02h-64.35l-.71,1.06s5.01,17.61,5.01,73.35c0,29.3.17,71.72.31,98.93-.13,27.21-.31,69.63-.31,98.94,0,55.74-5.01,73.35-5.01,73.35l.71,1.06h30.27l8.6-.02,30.26.02,141.81-.02v-42.05Z"/>
      <path class="cls-1" d="M1432.09,200.13l.05-.32v113.42h-.02v33.8h206.2v-42.05l-.97-.51s-17.19,8.57-73.61,8.57l.02-.02c-20.22,0-46.71.09-70.15.18h-1.89v-113.08s.46-79.09.46-125.39c0-55.74,5-73.35,5-73.35l-.71-1.06h-69.12l-.71,1.06s5.01,17.61,5.01,73.35c0,46.3.45,125.39.45,125.39Z"/>
      <path class="cls-1" d="M1825.81,313.01l.02.02c-20.23,0-46.72.08-70.15.17h-1.89v-113.4s.47-79.09.47-125.39c0-55.74,5.01-73.35,5.01-73.35l-.71-1.06h-69.12l-.71,1.06s5.01,17.61,5.01,73.35c0,46.3.45,125.39.45,125.39l.03-.2v113.58h-.02v33.8h206.2v-42.05l-.97-.5s-17.2,8.57-73.61,8.57Z"/>
      <path class="cls-1" d="M802.53,147.12l.03.06L748.7,1.92l-.45-1.18h-67.83l-87.97,250.86c-2.66,7.43-5.2,14.52-7.51,20.96-3.84,10.77-7.36,20.09-10.54,28.15,0,0-12.43,30.4-28.1,31.62-18.89,1.47-30.86-18.43-52.64-45.54-5.5-7.3-9.64-13.05-10.41-14.51-3.78-5.77-37.38-51.22-43.05-57.02-3.79-4.9-10.43-12.89-21.78-16.94v-1.88c23.15-7.15,40.03-19.23,51.82-31.57,6.02-6.3,15.56-16.69,21.19-33.31,4.67-13.73,4.46-25.33,4.26-32.47-.44-16.01-4.37-29.01-7.94-37.83-.02-.13-.08-.22-.15-.32-.39-.83-.79-1.67-1.21-2.51-2.95-5.8-6.6-11.3-10.99-16.45-13.56-15.97-30.04-26.91-49.41-32.88-9.54-2.93-21.68-5.11-36.42-6.59-15.22-1.54-33.24-2.31-54.01-2.31h-25.63v.06h-56.51l-.71,1.06s5,17.61,5,73.35c0,29.31.18,71.71.31,98.92-.13,27.21-.31,69.61-.31,98.92,0,55.74-5,73.35-5,73.35l.71,1.06h4.75l59.85.02,4.52-.02.71-1.06c-2.34-22.99-4.12-47.48-5-73.35-.81-23.49-.82-45.87-.24-67.06.08-.03.18-.06.26-.09.13-.05.26-.08.39-.11.15-.03.6-.14.95-.17,2.66-.32,6.17-.53,10.7-.53,27.43,0,38.79,12.02,51.07,25.81,5.7,6.23,28.41,38.31,30.3,41.42,2.34,3.57,27.89,45.88,31.69,51.21,2.45,3.35,6.96,9.79,11.33,15.51,4.7,6.16,12.35,8.46,20.1,8.41,22.11-.11,69.04-.05,84.94,0h38.55l1.1-1.06s.81-11.05,11.01-43.29l23.63-67.34h137.72c4.89,13.28,9.67,26.21,13.77,37.28,20.7,55.74,22.22,73.35,22.22,73.35l1.12,1.06h72.58l.32-1.06s-11.54-17.61-32.23-73.35c-17.17-46.29-46.97-125.37-46.97-125.39ZM402.05,164.42c-22.15,11.39-48.46,12.65-58.31,12.65h-25.75v-3.35c.13-27.21.31-69.61.31-98.92,0-16.75.45-30.02,1.08-40.45h41.03l-.02-.06s1.02-.04,2.76.08h.15c4.5.13,8.81.55,12.96,1.22.32.05.65.09.97.18,1.55.27,3.08.56,4.58.93.81.19,1.65.38,2.47.61.24.08.5.14.76.22,1.97.57,3.94,1.18,5.84,1.87.05.03.13.05.18.08,2.39.86,4.71,1.87,6.93,3,.61.27,1.21.59,1.79.93.74.36,1.49.75,2.2,1.2.6.34,1.18.71,1.78,1.08.55.32,1.08.67,1.6,1.04.05.03.1.08.15.1,1.11.74,2.19,1.5,3.23,2.34,2.1,1.58,4.08,3.27,6.01,5.1.05.06.1.1.15.15,1.58,1.53,3.08,3.12,4.49,4.77.69.8,1.37,1.62,2,2.46.03.03.05.05.05.08.69.84,1.31,1.7,1.87,2.56.69.93,1.32,1.9,1.92,2.89.03.05.08.13.1.17.37.55.71,1.11,1.03,1.69.1.2.23.42.37.65.61,1.08,1.21,2.2,1.74,3.35.29.61.6,1.22.89,1.87.32.71.65,1.45.94,2.2.44,1.07.84,2.12,1.21,3.18.19.55.37,1.08.55,1.64.24.7.47,1.4.65,2.15.32,1.06.6,2.14.84,3.19.19.75.37,1.54.52,2.34l.08.36c.15.65.27,1.31.37,1.96.03.09.03.18.05.28.18.97.32,1.95.44,2.93.13.93.23,1.9.32,2.85.05.51.1,1.01.13,1.53.1,1.01.15,2.05.19,3.08.03.61.05,1.2.05,1.82.06,1.03.05,2.08.05,3.14,0,.55,0,1.12-.02,1.66-.08,1.9-.19,3.75-.37,5.58-.13,1.31-.29,2.58-.5,3.87-.15.97-.32,1.89-.5,2.83-.19.9-.39,1.84-.61,2.76-.44,1.84-.94,3.64-1.53,5.42-.19.59-.39,1.16-.6,1.72-.32.86-.66,1.7-1.02,2.53-.34.83-.71,1.64-1.08,2.48-.08.14-.13.27-.19.42-.34.71-.71,1.43-1.08,2.11-2.29,4.44-5.13,8.63-8.52,12.6-5.12,5.32-11.06,9.51-17.64,12.87ZM645.62,202.28l.4-1.15,54.95-156.62,6.09,16.43,52.06,140.2.42,1.15h-113.91Z"/>
      <path class="cls-1" d="M29.62,529.72c-16.24-.16-29.49,9.93-29.62,22.54-.13,12.62,12.95,22.96,29.18,23.12,16.24.16,29.49-9.93,29.62-22.54.13-12.62-12.95-22.96-29.18-23.12Z"/>
      <polygon class="cls-1" points="198.31 603.3 146.47 478.09 122.16 478.09 122.16 480.92 186.62 627 204.23 627 268.3 481.73 268.46 478.09 244.08 478.09 198.31 603.3"/>
      <rect class="cls-1" x="358.05" y="478.1" width="23.53" height="148.89"/>
      <polygon class="cls-1" points="572.33 597.35 516.38 505.72 498.72 478.1 477.32 478.1 477.32 627 500.86 627 500.86 517.58 552.14 596.21 574.53 627 595.85 627 595.87 627 595.87 478.1 572.33 478.1 572.33 597.35"/>
      <polygon class="cls-1" points="715.14 558.67 794.53 558.67 794.53 546.06 715.14 546.06 715.14 490.72 798.84 490.72 798.84 478.1 691.59 478.1 691.59 627 801.29 627 801.3 627.01 801.3 614.4 715.14 614.4 715.14 558.67"/>
      <polygon class="cls-1" points="954.47 554.92 908.78 478.1 884.66 478.1 884.66 481.49 938.76 570.55 938.76 627 962.48 627 962.48 570.98 1016.29 481.97 1016.58 481.49 1016.58 478.1 992.55 478.1 954.47 554.92"/>
      <polygon class="cls-1" points="962.5 627 962.48 627 962.48 627.01 962.5 627"/>
      <path class="cls-1" d="M1143.65,478.1l-64.07,145.27-.16,3.62h24.39l15.62-43.5h66.26l15.23,43.5h24.81v-2.82l-64.46-146.07h-17.63ZM1180.92,570.89h-56.59l29.62-70.23,26.97,70.23Z"/>
      <path class="cls-1" d="M1426.21,588.92c-1.32-15.89-7.38-26.18-18.43-31.29,15.84-5.89,24.81-18.95,24.81-36.49,0-27.36-21.11-43.05-57.93-43.05h-59.39v148.89h23.53v-63.62h47.65c8.86,3.1,15.15,14.15,16.44,28.98,1.73,17.96,4.97,29.41,9.62,34.05l.59.59h24.84l.02-.02v-3.98l-.76-.59c-6.16-4.86-9.33-14.58-10.98-33.49ZM1408.63,521.14c0,19.52-11.42,29.41-33.98,29.41h-35.84v-59.64h35.84c20.95,0,33.98,10.7,33.98,30.23Z"/>
      <path class="cls-1" d="M1585.02,478.1h-55.47v148.89h55.47c48.5,0,75.21-26.76,75.21-74.64s-26.71-74.26-75.21-74.26ZM1635.65,552.34c0,28.21-8.78,61.84-50.63,61.84h-31.93v-123.27h31.93c41.85,0,50.63,33.22,50.63,61.43Z"/>
      <path class="cls-1" d="M1824.68,543.61c-27.78-4.06-47.44-8.48-47.44-28.41,0-15.99,13.9-27.13,33.79-27.13,33.72,0,35.43,31,35.43,37.2v2h23.13v-2c0-30.73-22.44-49.82-58.56-49.82-33.82,0-58.35,18.11-58.35,43.05,0,31.8,34.01,37.45,58.85,41.56,2.1.33,4.15.69,6.14,1.03,22.92,4.04,34.54,13.26,34.54,27.37,0,16.3-15.4,28.6-35.84,28.6-32,0-45.29-27.18-45.29-41.72v-2h-23.34v2c0,26.35,22.97,54.34,65.55,54.34,39.5,0,63.09-16.1,63.09-43.05,0-31.58-29.49-39.66-51.69-43.01Z"/>
      <path class="cls-1" d="M1982.89,529.72c-16.24-.16-29.49,9.93-29.62,22.54-.13,12.62,12.94,22.96,29.18,23.12,16.24.16,29.49-9.93,29.62-22.54.13-12.62-12.94-22.96-29.18-23.12Z"/>
    </g>
  </g>
</svg>