<?xml version="1.0" encoding="UTF-8"?>
<svg version="1.1" xmlns="http://www.w3.org/2000/svg" width="7681" height="4321">
<path d="M0 0 C2534.73 0 5069.46 0 7681 0 C7681 1425.93 7681 2851.86 7681 4321 C5146.27 4321 2611.54 4321 0 4321 C0 2895.07 0 1469.14 0 0 Z M2843 633 C2840.3449092 639.63772701 2837.83988018 646.19378438 2835.6015625 652.96484375 C2835.29036469 653.89848755 2834.97916687 654.83213135 2834.65853882 655.79406738 C2833.64415598 658.84082402 2832.63439509 661.88908761 2831.625 664.9375 C2830.90895182 667.09321278 2830.19280442 669.2488926 2829.4765625 671.40454102 C2823.47318193 689.49301178 2817.56317481 707.61141295 2811.68365479 725.740448 C2809.51056736 732.43719592 2807.32427973 739.12955871 2805.1328125 745.8203125 C2797.7446833 768.38186615 2790.42491276 790.96345825 2783.20703125 813.58007812 C2779.62183132 824.81261368 2776.0245123 836.04104236 2772.40234375 847.26171875 C2772.01230164 848.47002853 2771.62225952 849.67833832 2771.22039795 850.92326355 C2770.82749573 852.14040543 2770.43459351 853.3575473 2770.02978516 854.61157227 C2761.14375163 882.13981923 2752.37391603 909.70273012 2743.68878174 937.29496765 C2740.81752641 946.41373626 2737.93530746 955.5289988 2735.04886055 964.64296913 C2722.66509451 1003.74650368 2710.4048533 1042.88581109 2698.302948 1082.07748413 C2695.04311 1092.63301921 2691.77250547 1103.18518191 2688.4970665 1113.73588562 C2660.72074858 1203.21200687 2633.59550508 1292.88684138 2594.90635681 1423.5239439 C2593.41627037 1428.58870982 2591.92214705 1433.65227379 2590.42626953 1438.71533203 C2566.98156281 1518.08204541 2544.27072382 1597.67328027 2508.60913849 1724.79943085 C2507.97714286 1727.08257354 2507.34457421 1729.36555681 2506.71185303 1731.64849854 C2484.16402175 1813.00728572 2462.24033418 1894.54052448 2427.60949135 2028.70760059 C2426.38382827 2033.50296257 2425.15386266 2038.29720516 2423.92138672 2043.09082031 C2411.10741497 2092.93788053 2398.95082749 2142.93947349 2387 2193 C2386.79802002 2193.84550667 2386.59604004 2194.69101334 2386.38793945 2195.56214142 C2364.09323342 2288.89177646 2343.35864768 2382.63185492 2315 3056 C2315.31967743 3056.97546783 2315.31967743 3056.97546783 2315.64581299 3057.97064209 C2321.99034245 3077.30015643 2329.1852968 3096.22653574 2337 3115 C2337.50370117 3116.21236328 2338.00740234 3117.42472656 2338.52636719 3118.67382812 C2361.40232607 3173.37148828 2389.28124085 3227.03711565 2422.23730469 3276.35888672 C2424.07845895 3279.11755803 2425.90936214 3281.88285027 2427.73950195 3284.64883423 C2441.89555631 3306.07472811 2441.89555631 3306.07472811 2456.63134766 3327.10302734 C2458.11017135 3329.15269914 2459.57687753 3331.21073543 2461.04296875 3333.26953125 C2469.44880741 3345.03564069 2478.1917601 3356.53339573 2487 3368 C2487.95077534 3369.24199271 2488.90132596 3370.48415751 2489.8515625 3371.7265625 C2492.22432482 3374.82552137 2494.60930419 3377.91484497 2497 3381 C2497.41491699 3381.5357666 2497.82983398 3382.0715332 2498.25732422 3382.62353516 C2508.24386785 3395.49549665 2518.60545987 3408.06009141 2529.16577148 3420.46459961 C2532.01308934 3423.81379611 2534.79998975 3427.20566913 2537.5625 3430.625 C2541.38263317 3435.32355951 2545.41711256 3439.78213766 2549.51953125 3444.234375 C2552.00464232 3447.00517601 2554.35444333 3449.85051362 2556.6875 3452.75 C2559.72693601 3456.51590929 2562.86594416 3459.98454161 2566.33984375 3463.34765625 C2568.04384226 3465.04363594 2569.61714083 3466.80489696 2571.1875 3468.625 C2575.79663308 3473.96459836 2580.61449768 3479.11051894 2585.41064453 3484.28125 C2586.9760274 3485.97407572 2588.53409377 3487.67332117 2590.08984375 3489.375 C2595.44497494 3495.22429261 2600.86158387 3500.95794453 2606.55078125 3506.48828125 C2608.46434441 3508.45067537 2610.23664523 3510.42699737 2612.01269531 3512.50830078 C2616.53302261 3517.68933669 2621.38062265 3522.52410452 2626.24609375 3527.37890625 C2627.22598053 3528.35946881 2628.20571901 3529.34017959 2629.18531799 3530.32102966 C2631.2268264 3532.36400213 2633.27010566 3534.40518169 2635.31469727 3536.44506836 C2637.91452404 3539.03919866 2640.50983373 3541.63779434 2643.10381985 3544.2377634 C2645.12249396 3546.26007825 2647.14357733 3548.2799719 2649.1653614 3550.29917717 C2650.58232324 3551.71516246 2651.99729817 3553.13313515 2653.41221619 3554.55116272 C2657.91050325 3559.03329535 2662.45136922 3563.39219125 2667.28834534 3567.50852966 C2670.73566505 3570.51239207 2673.87536254 3573.83484789 2677.06640625 3577.10546875 C2680.54905257 3580.6394563 2684.17117203 3583.93489735 2687.92480469 3587.17871094 C2691.49807275 3590.31477914 2694.92806759 3593.60149815 2698.375 3596.875 C2704.50838541 3602.67358348 2710.69503913 3608.38825472 2717 3614 C2718.5833507 3615.43748087 2720.16668342 3616.87498155 2721.75 3618.3125 C2726.34584707 3622.45381274 2731.04040613 3626.47077576 2735.75024414 3630.48095703 C2739.46030366 3633.65006073 2743.09607689 3636.88339074 2746.6875 3640.1875 C2751.09621567 3644.23420969 2755.66065675 3648.02753715 2760.31640625 3651.78515625 C2762.94708557 3653.95632827 2765.47942424 3656.20241357 2768 3658.5 C2772.24167026 3662.3609219 2776.62033927 3666.00549703 2781.078125 3669.61328125 C2784.27411238 3672.2239073 2787.42062243 3674.88731068 2790.5625 3677.5625 C2795.05659907 3681.38169944 2799.60008417 3685.12156184 2804.22265625 3688.78515625 C2807.05991124 3691.04777732 2809.87457838 3693.33626061 2812.68676758 3695.62988281 C2820.16160253 3701.72579602 2827.69788688 3707.73398374 2835.29980469 3713.67041016 C2837.55086859 3715.43079126 2839.79573621 3717.19898245 2842.04077148 3718.96704102 C2863.3341117 3735.72858907 2884.79037408 3752.2636387 2906.65283203 3768.27783203 C2909.03121911 3770.02290613 2911.40499134 3771.77407617 2913.77734375 3773.52734375 C2929.31484795 3785.00938193 2944.95946362 3796.33262846 2960.77099609 3807.43457031 C2963.09472101 3809.06652258 2965.41646048 3810.70127758 2967.73828125 3812.3359375 C2987.00924449 3825.88595363 3006.52965703 3839.05037476 3026.125 3852.125 C3027.00698059 3852.71388 3027.88896118 3853.30276001 3028.79766846 3853.90948486 C3045.00791743 3864.72874782 3061.29518514 3875.43048563 3077.75 3885.875 C3079.0968689 3886.73061523 3079.0968689 3886.73061523 3080.47094727 3887.60351562 C3098.859904 3899.26735912 3117.36017186 3910.74148162 3136 3922 C3136.9801709 3922.59248535 3137.9603418 3923.1849707 3138.97021484 3923.79541016 C3188.48471509 3953.69686748 3238.7505481 3982.28238157 3290.09765625 4008.92578125 C3293.48117299 4010.68181453 3296.85714264 4012.4512718 3300.22631836 4014.23461914 C3311.56246658 4020.23198583 3322.96390205 4026.08260384 3334.4375 4031.8125 C3335.30162506 4032.24442657 3336.16575012 4032.67635315 3337.05606079 4033.12136841 C3352.24445682 4040.70467563 3367.53543339 4047.99464461 3383 4055 C3385.29820129 4056.0507283 3387.59637795 4057.10151049 3389.89453125 4058.15234375 C3424.98519284 4074.12186303 3460.70189297 4088.01872825 3497 4101 C3498.4053299 4101.5030365 3498.4053299 4101.5030365 3499.83905029 4102.01623535 C3559.41568869 4123.31727655 3619.73909065 4142.16177116 3681 4158 C3681.87640137 4158.22731812 3682.75280273 4158.45463623 3683.65576172 4158.68884277 C3738.30271463 4172.98435684 3738.30271463 4172.98435684 3794 4182 C3795.1125415 4182.12600082 3795.1125415 4182.12600082 3796.24755859 4182.25454712 C3811.67560154 4183.96258122 3826.98625609 4184.3622135 3842.5 4184.3125 C3843.68488007 4184.31067719 3844.86976013 4184.30885437 3846.09054565 4184.30697632 C3864.24767733 4184.26003654 3882.01816235 4183.69255423 3900 4181 C3901.09586426 4180.8443457 3902.19172852 4180.68869141 3903.32080078 4180.52832031 C3977.20668429 4169.80346803 4050.57834053 4146.98669372 4121.37268066 4123.85754395 C4124.10527595 4122.96563845 4126.83918339 4122.07783799 4129.57324219 4121.19042969 C4193.49237018 4100.4114717 4256.27360268 4076.86599783 4317 4048 C4317.85298676 4047.59469055 4318.70597351 4047.1893811 4319.58480835 4046.77178955 C4335.33916487 4039.2740948 4350.99808018 4031.59414428 4366.60327148 4023.79101562 C4368.99675696 4022.59423209 4371.39163349 4021.40030673 4373.7878418 4020.20898438 C4388.57468926 4012.85670385 4403.19478841 4005.28127436 4417.64767456 3997.29266357 C4421.04853616 3995.4238023 4424.47197348 3993.59914404 4427.90234375 3991.78515625 C4429.6488623 3990.86077759 4429.6488623 3990.86077759 4431.43066406 3989.91772461 C4432.58791992 3989.30550049 4433.74517578 3988.69327637 4434.9375 3988.0625 C4447.75117062 3981.25860804 4460.42146893 3974.23069626 4473 3967 C4474.03044434 3966.40864258 4475.06088867 3965.81728516 4476.12255859 3965.20800781 C4483.75868476 3960.82308836 4491.38165383 3956.41572187 4499 3952 C4499.99080566 3951.42668945 4500.98161133 3950.85337891 4502.00244141 3950.26269531 C4533.59096727 3931.97543447 4564.84138665 3913.08950401 4595.63964844 3893.49951172 C4598.10347528 3891.93426302 4600.57104163 3890.37503247 4603.0390625 3888.81640625 C4641.98591663 3864.17891482 4680.26685889 3838.45539936 4718 3812 C4718.77375977 3811.45794922 4719.54751953 3810.91589844 4720.34472656 3810.35742188 C4729.77949467 3803.74190655 4739.14669367 3797.03598657 4748.4765625 3790.2734375 C4751.44366447 3788.12308618 4754.41750504 3785.98269684 4757.3984375 3783.8515625 C4766.42065482 3777.39111052 4775.29920865 3770.76814897 4784.10595703 3764.0168457 C4789.91758395 3759.56716881 4795.7793702 3755.19552553 4801.6875 3750.875 C4810.93755991 3744.10047079 4819.98708163 3737.08569476 4829 3730 C4830.24859874 3729.02070687 4831.49729183 3728.04153403 4832.74609375 3727.0625 C4835.04213558 3725.26135467 4837.33630146 3723.45786158 4839.62890625 3721.65234375 C4841.9459381 3719.82780801 4844.26658215 3718.00800243 4846.58984375 3716.19140625 C4852.7893547 3711.34074638 4858.94511743 3706.44782371 4865.0234375 3701.4453125 C4868.670616 3698.44907399 4872.33501377 3695.47440721 4876 3692.5 C4878.04785213 3690.83646393 4880.09548964 3689.17266405 4882.14306641 3687.50878906 C4883.76566368 3686.19040211 4885.38865777 3684.87250355 4887.01171875 3683.5546875 C4893.5246575 3678.2492571 4899.94605515 3672.84199306 4906.34716797 3667.40283203 C4907.97028067 3666.02522412 4909.5959304 3664.65068243 4911.22265625 3663.27734375 C4917.99454303 3657.55979969 4924.73884833 3651.81116672 4931.4609375 3646.03515625 C4933.81374412 3644.01428894 4936.17339211 3642.00188441 4938.5390625 3639.99609375 C4945.54889682 3634.04195153 4952.38281658 3627.93977544 4959.11328125 3621.671875 C4962.00098177 3618.9990913 4964.94295907 3616.40619752 4967.91796875 3613.83203125 C4971.13879512 3610.99794576 4974.28777188 3608.08580298 4977.44433594 3605.18066406 C4980.54706819 3602.32661668 4983.66875048 3599.4964742 4986.8125 3596.6875 C4991.14666985 3592.795163 4995.4244284 3588.84482506 4999.6875 3584.875 C5000.30536377 3584.30096436 5000.92322754 3583.72692871 5001.55981445 3583.13549805 C5004.58344905 3580.31228076 5007.55446575 3577.4555893 5010.45703125 3574.5078125 C5012.68063368 3572.26426426 5014.952437 3570.16043261 5017.36767578 3568.1262207 C5023.76442859 3562.5568382 5029.67146262 3556.47223292 5035.66015625 3550.47265625 C5036.97702213 3549.1564654 5038.2940363 3547.8404229 5039.6111908 3546.52452087 C5042.36034074 3543.77683856 5045.10769119 3541.0273731 5047.85375977 3538.27661133 C5051.35590003 3534.76877437 5054.86251151 3531.26544693 5058.37049198 3527.76345158 C5061.08764855 3525.04992594 5063.80239743 3522.33400155 5066.51644707 3519.6173687 C5067.80777245 3518.32538104 5069.09982772 3517.03412245 5070.39265633 3515.74363899 C5079.30775293 3506.86831337 5079.30775293 3506.86831337 5087.70933533 3497.510849 C5089.52418018 3495.38639593 5091.49561813 3493.44454958 5093.5 3491.5 C5096.78103368 3488.25743741 5099.85459996 3484.92952978 5102.85546875 3481.4296875 C5105.83448236 3478.05455732 5108.91946264 3474.78234907 5112 3471.5 C5116.19980404 3467.02068309 5120.36695359 3462.53144369 5124.37109375 3457.875 C5126.33665089 3455.61248819 5128.35673309 3453.40309317 5130.375 3451.1875 C5134.32371445 3446.81714316 5138.0462721 3442.29696921 5141.75 3437.71875 C5143.93501569 3435.07852271 5146.19171391 3432.5327028 5148.5 3430 C5152.72415948 3425.35415162 5156.69892532 3420.54310192 5160.64697266 3415.66210938 C5162.18583116 3413.77171805 5163.73834595 3411.89307293 5165.29296875 3410.015625 C5172.16044651 3401.72156974 5178.93745629 3393.3721962 5185.54443359 3384.86914062 C5187.1241809 3382.84053523 5188.712145 3380.81852574 5190.30078125 3378.796875 C5198.1377852 3368.80249356 5205.74321068 3358.65804389 5213.23681641 3348.40429688 C5215.0173852 3345.97629335 5216.80949698 3343.55725279 5218.60546875 3341.140625 C5225.96080044 3331.23683191 5233.1186066 3321.23849875 5240 3311 C5240.73557129 3309.906875 5241.47114258 3308.81375 5242.22900391 3307.6875 C5252.37404706 3292.59795505 5262.46237552 3277.48330833 5272 3262 C5272.62938477 3260.98325195 5273.25876953 3259.96650391 5273.90722656 3258.91894531 C5284.43813416 3241.87766067 5294.4277345 3224.60241722 5304 3207 C5304.61584961 3205.87658203 5305.23169922 3204.75316406 5305.86621094 3203.59570312 C5346.01400515 3130.32232129 5376.9579296 3051.32730821 5405 2761 C5404.89065125 2759.98147949 5404.78130249 2758.96295898 5404.66864014 2757.91357422 C5394.62703188 2664.62513955 5379.09690194 2571.91988573 5360.48596954 2477.46586609 C5359.98794912 2474.93885244 5359.4909368 2472.41164201 5358.99407959 2469.88439941 C5347.49085761 2411.4062873 5335.07980554 2353.14505831 5322 2295 C5321.81171631 2294.16279167 5321.62343262 2293.32558334 5321.42944336 2292.46300507 C5303.29839961 2211.87491012 5283.67710463 2131.63289643 5178 1729 C5177.77891571 1728.20390068 5177.55783142 1727.40780136 5177.33004761 1726.58757782 C5152.43700679 1636.97064124 5126.85199516 1547.54034601 5100.67192078 1458.29109192 C5099.99959987 1455.99863566 5099.32767498 1453.70606369 5098.65588379 1451.41345215 C5074.91304521 1370.38951318 5050.79356214 1289.47060352 5026.06459332 1208.74192142 C5024.33558343 1203.09719956 5022.6089044 1197.4517671 5020.8828125 1191.80615234 C5005.77870462 1142.40926053 4990.54098991 1093.05563226 4975.11455059 1043.75844574 C4973.48963668 1038.56571275 4971.86601942 1033.3725759 4970.24316406 1028.17919922 C4958.24260266 989.7781797 4946.13990945 951.41048855 4933.93354034 913.0744009 C4932.40120429 908.2614287 4930.87042582 903.44796281 4929.34033203 898.63427734 C4911.11172234 841.28962568 4892.62555236 784.03093858 4873.89404297 726.848526 C4871.43788748 719.34673435 4868.99408553 711.84098565 4866.55949402 704.33216858 C4858.83312711 680.51013583 4850.92007872 656.76023617 4843 633 C4183 633 3523 633 2843 633 Z " fill="#ffffff" transform="translate(0,0)"/>
</svg>
